<svg width="18" height="10" viewBox="0 0 18 10" fill="none" xmlns="http://www.w3.org/2000/svg">
<path d="M1.17674 1.41901L1.17676 1.419L1.5303 1.06541C1.53031 1.06541 1.53031 1.0654 1.53032 1.0654C1.62794 0.967784 1.78621 0.967779 1.88385 1.06541C1.88385 1.06542 1.88385 1.06542 1.88385 1.06542L8.64641 7.82801L8.99996 8.18157L9.35352 7.82802L16.1161 1.06542C16.2138 0.967778 16.372 0.967778 16.4696 1.06542L16.8232 1.41902C16.9208 1.51665 16.9208 1.67487 16.8232 1.77251L9.17671 9.41901C9.07907 9.51665 8.92085 9.51665 8.82322 9.41901L1.17674 1.77251C1.17674 1.77251 1.17674 1.77251 1.17674 1.77251C1.07911 1.67487 1.07911 1.51665 1.17674 1.41901Z" fill="white" stroke="white"/>
</svg>
